<?xml version="1.0" encoding="iso-8859-1"?>
<!-- Generator: Adobe Illustrator 19.0.0, SVG Export Plug-In . SVG Version: 6.00 Build 0)  -->
<svg version="1.1" id="Capa_1" xmlns="http://www.w3.org/2000/svg" xmlns:xlink="http://www.w3.org/1999/xlink" x="0px" y="0px"
	 viewBox="0 0 512 512" style="enable-background:new 0 0 512 512;" xml:space="preserve">
<g>
	<g>
		<path d="M352,0H64C28.704,0,0,28.704,0,64v192c0,35.296,28.704,64,64,64v80c0,6.24,3.648,11.936,9.312,14.528
			C75.456,415.52,77.728,416,80,416c3.744,0,7.456-1.312,10.4-3.84L197.92,320H352c35.296,0,64-28.704,64-64V64
			C416,28.704,387.296,0,352,0z"/>
	</g>
</g>
<g>
	<g>
		<path d="M448,96v160c0,52.928-43.072,96-96,96H209.76l-70.368,60.288C145.92,414.528,152.768,416,160,416h154.08l107.488,92.16
			c2.976,2.528,6.688,3.84,10.432,3.84c2.272,0,4.576-0.48,6.688-1.472C444.384,507.936,448,502.24,448,496v-80
			c35.296,0,64-28.704,64-64V160C512,124.704,483.296,96,448,96z"/>
	</g>
</g>
<g>
</g>
<g>
</g>
<g>
</g>
<g>
</g>
<g>
</g>
<g>
</g>
<g>
</g>
<g>
</g>
<g>
</g>
<g>
</g>
<g>
</g>
<g>
</g>
<g>
</g>
<g>
</g>
<g>
</g>
</svg>
